Normalized EMG Linear Envelopes
nRows=267
nColumns=4

endheader
time	 med_gas_r	  soleus_r	 tib_ant_r	
3.19355	  0.005118	  0.017916	  0.003343	
3.22681	  0.005164	  0.017441	  0.003171	
3.26008	  0.005203	  0.017037	  0.003029	
3.29335	  0.005231	  0.016764	  0.002928	
3.32661	  0.005266	  0.016697	  0.002871	
3.35988	  0.005337	  0.016898	  0.002853	
3.39315	  0.005468	  0.017385	  0.002863	
3.42641	  0.005665	  0.018129	  0.002887	
3.45968	  0.005913	  0.019065	  0.002904	
3.49294	  0.006188	  0.020109	  0.002899	
3.52621	  0.006464	  0.021158	  0.002872	
3.55948	  0.006716	  0.022078	  0.002835	
3.59274	  0.006924	  0.022705	  0.002800	
3.62601	  0.007070	  0.022889	  0.002770	
3.65927	  0.007141	  0.022557	  0.002741	
3.69254	  0.007132	  0.021765	  0.002716	
3.72581	  0.007054	  0.020680	  0.002703	
3.75907	  0.006936	  0.019526	  0.002705	
3.79234	  0.006812	  0.018507	  0.002720	
3.8256	  0.006710	  0.017767	  0.002743	
3.85887	  0.006639	  0.017382	  0.002778	
3.89214	  0.006591	  0.017379	  0.002829	
3.9254	  0.006548	  0.017745	  0.002896	
3.95867	  0.006495	  0.018439	  0.002964	
3.99194	  0.006425	  0.019396	  0.003019	
4.0252	  0.006341	  0.020511	  0.003057	
4.05847	  0.006249	  0.021632	  0.003081	
4.09173	  0.006151	  0.022578	  0.003098	
4.125	  0.006044	  0.023182	  0.003108	
4.15827	  0.005934	  0.023351	  0.003111	
4.19153	  0.005829	  0.023093	  0.003105	
4.2248	  0.005747	  0.022495	  0.003088	
4.25806	  0.005700	  0.021675	  0.003060	
4.29133	  0.005694	  0.020752	  0.003027	
4.3246	  0.005727	  0.019823	  0.002999	
4.35786	  0.005794	  0.018966	  0.002989	
4.39113	  0.005877	  0.018246	  0.003004	
4.4244	  0.005949	  0.017716	  0.003049	
4.45766	  0.005975	  0.017415	  0.003129	
4.49093	  0.005939	  0.017353	  0.003248	
4.52419	  0.005846	  0.017500	  0.003399	
4.55746	  0.005717	  0.017800	  0.003570	
4.59073	  0.005575	  0.018196	  0.003741	
4.62399	  0.005438	  0.018648	  0.003887	
4.65726	  0.005320	  0.019128	  0.003967	
4.69052	  0.005227	  0.019605	  0.003921	
4.72379	  0.005154	  0.020042	  0.003664	
4.75706	  0.005095	  0.020413	  0.003103	
4.79032	  0.005045	  0.020711	  0.002139	
4.82359	  0.005012	  0.020934	  0.000687	
4.85685	  0.005000	  0.021049	 -0.001307	
4.89012	  0.005000	  0.020964	 -0.003812	
4.92339	  0.004992	  0.020561	 -0.006629	
4.95665	  0.004965	  0.019784	 -0.009301	
4.98992	  0.004942	  0.018731	 -0.011047	
5.02319	  0.004985	  0.017701	 -0.010714	
5.05645	  0.005188	  0.017184	 -0.006733	
5.08972	  0.005667	  0.017807	  0.002910	
5.12298	  0.006565	  0.020290	  0.020541	
5.15625	  0.008049	  0.025388	  0.048362	
5.18952	  0.010287	  0.033771	  0.087700	
5.22278	  0.013379	  0.045826	  0.138305	
5.25605	  0.017297	  0.061474	  0.198160	
5.28931	  0.021859	  0.080150	  0.264014	
5.32258	  0.026779	  0.100965	  0.332331	
5.35585	  0.031761	  0.122974	  0.400061	
5.38911	  0.036573	  0.145349	  0.464786	
5.42238	  0.041046	  0.167385	  0.524233	
5.45565	  0.045016	  0.188367	  0.575675	
5.48891	  0.048282	  0.207481	  0.616064	
5.52218	  0.050636	  0.223916	  0.643243	
5.55544	  0.051944	  0.237186	  0.657497	
5.58871	  0.052238	  0.247500	  0.661966	
5.62198	  0.051727	  0.255922	  0.661393	
5.65524	  0.050738	  0.264131	  0.660225	
5.68851	  0.049590	  0.273864	  0.661588	
5.72177	  0.048519	  0.286257	  0.667393	
5.75504	  0.047659	  0.301312	  0.678633	
5.78831	  0.047101	  0.317654	  0.695074	
5.82157	  0.046921	  0.332712	  0.714734	
5.85484	  0.047168	  0.343436	  0.734173	
5.8881	  0.047813	  0.347375	  0.749970	
5.92137	  0.048729	  0.343676	  0.760387	
5.95464	  0.049714	  0.333512	  0.765837	
5.9879	  0.050540	  0.319813	  0.767939	
6.02117	  0.051023	  0.306404	  0.768306	
6.05444	  0.051088	  0.296879	  0.768121	
6.0877	  0.050813	  0.293632	  0.768283	
6.12097	  0.050393	  0.297431	  0.769224	
6.15423	  0.050018	  0.307530	  0.770311	
6.1875	  0.049738	  0.321971	  0.769675	
6.22077	  0.049430	  0.337770	  0.765065	
6.25403	  0.048908	  0.351217	  0.755216	
6.2873	  0.048087	  0.358712	  0.740693	
6.32056	  0.047067	  0.358045	  0.723683	
6.35383	  0.046057	  0.349333	  0.707015	
6.3871	  0.045242	  0.334934	  0.693080	
6.42036	  0.044702	  0.318421	  0.683237	
6.45363	  0.044445	  0.303322	  0.677835	
6.4869	  0.044473	  0.292203	  0.676534	
6.52016	  0.044795	  0.286288	  0.678551	
6.55343	  0.045382	  0.285462	  0.682804	
6.58669	  0.046128	  0.288439	  0.688140	
6.61996	  0.046888	  0.292977	  0.693525	
6.65323	  0.047551	  0.296286	  0.697891	
6.68649	  0.048087	  0.295827	  0.699794	
6.71976	  0.048511	  0.290392	  0.697599	
6.75302	  0.048836	  0.280884	  0.690504	
6.78629	  0.049054	  0.270171	  0.679497	
6.81956	  0.049165	  0.262014	  0.667000	
6.85282	  0.049197	  0.259705	  0.655210	
6.88609	  0.049196	  0.265098	  0.644679	
6.91935	  0.049200	  0.278179	  0.634526	
6.95262	  0.049237	  0.297049	  0.623999	
6.98589	  0.049346	  0.318359	  0.613822	
7.01915	  0.049576	  0.338266	  0.606175	
7.05242	  0.049957	  0.353593	  0.603625	
7.08569	  0.050453	  0.362581	  0.608106	
7.11895	  0.050939	  0.365026	  0.620525	
7.15222	  0.051247	  0.362161	  0.640593	
7.18548	  0.051248	  0.356528	  0.666473	
7.21875	  0.050921	  0.351470	  0.694574	
7.25202	  0.050342	  0.349877	  0.720195	
7.28528	  0.049604	  0.352686	  0.739034	
7.31855	  0.048759	  0.358347	  0.748758	
7.35181	  0.047809	  0.363856	  0.749692	
7.38508	  0.046752	  0.366651	  0.744255	
7.41835	  0.045619	  0.365953	  0.735364	
7.45161	  0.044497	  0.362729	  0.724715	
7.48488	  0.043517	  0.358581	  0.712153	
7.51815	  0.042837	  0.354609	  0.696678	
7.55141	  0.042602	  0.350963	  0.678123	
7.58468	  0.042881	  0.347123	  0.657844	
7.61794	  0.043615	  0.342455	  0.637911	
7.65121	  0.044611	  0.336620	  0.619829	
7.68448	  0.045603	  0.329859	  0.604061	
7.71774	  0.046376	  0.323372	  0.590505	
7.75101	  0.046866	  0.319766	  0.579175	
7.78427	  0.047190	  0.322996	  0.570443	
7.81754	  0.047566	  0.337176	  0.564825	
7.85081	  0.048176	  0.364393	  0.562607	
7.88407	  0.049047	  0.402786	  0.563590	
7.91734	  0.050025	  0.446362	  0.567092	
7.9506	  0.050871	  0.486921	  0.572226	
7.98387	  0.051400	  0.516881	  0.578297	
8.01714	  0.051579	  0.531354	  0.584943	
8.0504	  0.051515	  0.528749	  0.591902	
8.08367	  0.051363	  0.510428	  0.598647	
8.11694	  0.051211	  0.480215	  0.604257	
8.1502	  0.051050	  0.444022	  0.607572	
8.18347	  0.050828	  0.409261	  0.607452	
8.21673	  0.050529	  0.383625	  0.603135	
8.25	  0.050192	  0.373204	  0.594798	
8.28327	  0.049871	  0.380439	  0.584114	
8.31653	  0.049573	  0.402904	  0.574199	
8.3498	  0.049262	  0.433834	  0.568536	
8.38306	  0.048905	  0.464417	  0.569385	
8.41633	  0.048522	  0.486731	  0.576820	
8.4496	  0.048160	  0.495812	  0.589080	
8.48286	  0.047835	  0.490155	  0.603719	
8.51613	  0.047510	  0.471220	  0.618509	
8.5494	  0.047148	  0.442808	  0.631679	
8.58266	  0.046798	  0.410489	  0.641978	
8.61593	  0.046619	  0.380681	  0.649018	
8.64919	  0.046777	  0.359182	  0.653577	
8.68246	  0.047302	  0.349554	  0.657151	
8.71573	  0.048016	  0.351848	  0.660700	
8.74899	  0.048601	  0.362132	  0.663578	
8.78226	  0.048768	  0.373377	  0.663725	
8.81552	  0.048382	  0.377981	  0.659152	
8.84879	  0.047476	  0.371128	  0.649554	
8.88206	  0.046185	  0.353084	  0.636749	
8.91532	  0.044666	  0.328874	  0.623640	
8.94859	  0.043072	  0.305550	  0.612479	
8.98185	  0.041571	  0.288877	  0.603657	
9.01512	  0.040358	  0.281335	  0.595816	
9.04839	  0.039620	  0.282174	  0.587179	
9.08165	  0.039443	  0.289044	  0.577104	
9.11492	  0.039763	  0.300040	  0.566719	
9.14819	  0.040400	  0.314896	  0.558294	
9.18145	  0.041156	  0.334542	  0.553936	
9.21472	  0.041896	  0.359331	  0.554498	
9.24798	  0.042531	  0.387334	  0.559206	
9.28125	  0.042966	  0.414101	  0.566016	
9.31452	  0.043089	  0.434204	  0.572483	
9.34778	  0.042846	  0.443477	  0.576760	
9.38105	  0.042328	  0.440581	  0.578245	
9.41431	  0.041766	  0.427198	  0.577632	
9.44758	  0.041417	  0.407110	  0.576472	
9.48085	  0.041415	  0.384873	  0.576546	
9.51411	  0.041709	  0.364662	  0.579099	
9.54738	  0.042128	  0.349596	  0.584024	
9.58065	  0.042509	  0.341644	  0.589475	
9.61391	  0.042789	  0.342044	  0.592402	
9.64718	  0.043034	  0.351806	  0.589895	
9.68044	  0.043418	  0.371817	  0.580567	
9.71371	  0.044211	  0.402427	  0.565344	
9.74698	  0.045766	  0.442895	  0.547610	
9.78024	  0.048461	  0.491249	  0.532765	
9.81351	  0.052575	  0.544634	  0.527063	
9.84677	  0.058178	  0.599906	  0.535610	
9.88004	  0.065108	  0.654166	  0.560028	
9.91331	  0.073027	  0.705133	  0.597017	
9.94657	  0.081471	  0.751311	  0.639056	
9.97984	  0.089859	  0.791894	  0.677346	
10.0131	  0.097545	  0.826456	  0.705520	
10.0464	  0.103980	  0.854681	  0.721890	
10.0796	  0.108907	  0.876365	  0.729043	
10.1129	  0.112413	  0.891582	  0.731438	
10.1462	  0.114787	  0.900648	  0.732739	
10.1794	  0.116292	  0.903830	  0.734354	
10.2127	  0.117036	  0.901370	  0.735622	
10.246	  0.117025	  0.894160	  0.735118	
10.2792	  0.116301	  0.884479	  0.732102	
10.3125	  0.115048	  0.875625	  0.727234	
10.3458	  0.113601	  0.870237	  0.722337	
10.379	  0.112374	  0.868654	  0.719578	
10.4123	  0.111760	  0.868893	  0.720621	
10.4456	  0.111994	  0.868314	  0.726025	
10.4788	  0.113035	  0.865397	  0.734935	
10.5121	  0.114503	  0.860221	  0.745070	
10.5454	  0.115731	  0.853746	  0.753053	
10.5786	  0.115908	  0.846906	  0.755130	
10.6119	  0.114256	  0.839965	  0.748096	
10.6452	  0.110190	  0.831757	  0.730018	
10.6784	  0.103461	  0.818754	  0.700374	
10.7117	  0.094238	  0.794982	  0.659800	
10.745	  0.083124	  0.753819	  0.610021	
10.7782	  0.071045	  0.691257	  0.554164	
10.8115	  0.059049	  0.608628	  0.496789	
10.8448	  0.048077	  0.512909	  0.442974	
10.878	  0.038785	  0.414430	  0.396761	
10.9113	  0.031471	  0.323434	  0.360018	
10.9446	  0.026097	  0.247288	  0.332414	
10.9778	  0.022381	  0.189252	  0.312139	
11.0111	  0.019914	  0.148721	  0.296605	
11.0444	  0.018261	  0.122381	  0.282813	
11.0776	  0.017038	  0.105700	  0.267742	
11.1109	  0.015959	  0.094336	  0.249065	
11.1442	  0.014864	  0.085135	  0.225933	
11.1774	  0.013717	  0.076490	  0.199213	
11.2107	  0.012574	  0.068089	  0.170917	
11.244	  0.011530	  0.060321	  0.143212	
11.2772	  0.010660	  0.053695	  0.117674	
11.3105	  0.010006	  0.048468	  0.095113	
11.3437	  0.009567	  0.044537	  0.075793	
11.377	  0.009318	  0.041529	  0.059703	
11.4103	  0.009216	  0.039002	  0.046683	
11.4435	  0.009204	  0.036649	  0.036447	
11.4768	  0.009223	  0.034386	  0.028592	
11.5101	  0.009224	  0.032275	  0.022640	
11.5433	  0.009171	  0.030379	  0.018118	
11.5766	  0.009045	  0.028679	  0.014633	
11.6099	  0.008838	  0.027094	  0.011911	
11.6431	  0.008558	  0.025552	  0.009756	
11.6764	  0.008230	  0.024037	  0.008016	
11.7097	  0.007894	  0.022589	  0.006577	
11.7429	  0.007585	  0.021275	  0.005385	
11.7762	  0.007314	  0.020167	  0.004439	
11.8095	  0.007076	  0.019347	  0.003747	
11.8427	  0.006860	  0.018902	  0.003289	
11.876	  0.006662	  0.018906	  0.003027	
11.9093	  0.006482	  0.019383	  0.002929	
11.9425	  0.006314	  0.020278	  0.002981	
11.9758	  0.006143	  0.021457	  0.003170	
12.0091	  0.005958	  0.022756	  0.003463	
12.0423	  0.005766	  0.024051	  0.003808	
